####
#
# OBJ File Generated by Meshlab
#
####
# Object stanford_bunny_dec256.obj
#
# Vertices: 243
# Faces: 269
#
####
vn 0.117998 0.222207 0.967833
v -0.003618 0.080353 0.058995
vn -0.392615 -0.825780 0.404897
v -0.057500 0.058827 0.021260
vn -0.609439 -0.459008 -0.646448
v -0.052917 0.056641 0.019137
vn -0.274508 0.337838 0.900284
v -0.066214 0.110321 0.044984
vn -0.892173 0.446202 0.070224
v -0.051189 0.055813 0.015435
vn -0.652000 -0.461384 -0.601682
v -0.057500 0.058979 0.021570
vn -0.713572 -0.700573 -0.003576
v -0.057703 0.059127 0.021675
vn -0.925875 0.271728 -0.262525
v -0.051529 0.055922 0.016773
vn -0.781251 0.099488 -0.616238
v -0.052022 0.056108 0.018667
vn -0.497461 -0.091819 -0.862613
v -0.055049 0.057785 0.020214
vn 0.235189 -0.577673 0.781652
v -0.055719 0.057001 0.011057
vn -0.599916 -0.463251 -0.652303
v -0.054246 0.057438 0.019810
vn -0.968868 0.209934 0.131234
v -0.091909 0.136563 0.035410
vn -0.997515 0.011800 -0.069458
v -0.057382 0.042206 0.023218
vn -0.701075 0.296308 0.648610
v -0.053750 0.056038 0.011620
vn -0.613380 0.597277 0.516746
v -0.052909 0.055967 0.012621
vn -0.664459 0.581077 0.469940
v -0.052188 0.055906 0.013621
vn -0.712709 0.564659 0.416181
v -0.051587 0.055856 0.014621
vn -0.411896 -0.881568 0.230608
v -0.054596 0.057550 0.019613
vn 0.027744 -0.912049 -0.409142
v -0.018055 0.037793 -0.030147
vn -0.552956 0.217328 -0.804368
v -0.055323 0.090755 -0.023502
vn 0.605040 0.600453 -0.522861
v 0.042033 0.120737 -0.005704
vn 0.212189 -0.971021 0.109975
v -0.041866 0.034002 -0.005803
vn 0.689925 -0.359412 0.628352
v -0.039670 0.036174 -0.007340
vn -0.219849 -0.683959 -0.695605
v 0.010666 0.035159 0.003710
vn 0.082661 -0.799122 0.595459
v 0.011752 0.035286 0.003813
vn 0.112344 -0.729086 0.675139
v 0.012883 0.035495 0.003851
vn 0.206173 -0.542231 0.814542
v 0.014014 0.035704 0.003888
vn 0.043674 -0.720151 0.692441
v 0.015323 0.036240 0.003663
vn -0.247953 -0.936681 0.247281
v 0.016276 0.036121 0.003963
vn -0.353503 -0.928666 0.112312
v 0.017185 0.035921 0.004328
vn -0.120385 -0.960907 0.249331
v 0.018008 0.035558 0.004828
vn 0.022637 -0.998976 -0.039162
v -0.041504 0.034052 -0.003939
vn 0.253524 -0.933977 0.251817
v -0.038067 0.038519 -0.007308
vn -0.089096 -0.995739 -0.023782
v -0.037246 0.038155 -0.006810
vn -0.069449 -0.959037 0.274634
v 0.020285 0.034390 0.001426
vn -0.012288 0.865577 -0.500625
v 0.009429 0.036030 0.004528
vn -0.160349 -0.927628 0.337336
v 0.018764 0.036357 0.006112
vn -0.447896 -0.869446 0.208452
v 0.019585 0.035993 0.006608
vn -0.405491 -0.887090 0.220562
v 0.020452 0.035710 0.007042
vn 0.199240 -0.895875 0.397130
v -0.041271 0.033855 -0.001880
vn 0.199015 -0.920489 0.336294
v -0.039967 0.034391 -0.002104
vn 0.007674 -0.999496 -0.030803
v -0.036796 0.038371 -0.005075
vn 0.008360 -0.994941 -0.100110
v -0.035797 0.038335 -0.004839
vn 0.166668 -0.963140 0.211145
v 0.006219 0.035134 0.006549
vn 0.322542 0.744377 0.584696
v 0.007882 0.036327 0.005802
vn -0.506671 -0.834233 0.217577
v 0.020898 0.035937 0.008785
vn -0.764445 0.644584 -0.011681
v 0.021677 0.035491 0.009351
vn 0.032359 -0.999255 0.021017
v -0.039911 0.033865 0.000216
vn 0.044337 -0.997822 0.048849
v -0.038828 0.033992 0.000319
vn 0.004242 -0.996564 -0.082723
v -0.035481 0.038305 -0.002909
vn 0.006556 -0.997965 -0.063421
v -0.034479 0.038269 -0.002672
vn -0.133286 -0.967394 -0.215370
v 0.004917 0.033997 0.009167
vn -0.162873 0.983783 -0.075117
v 0.022300 0.036044 0.010830
vn 0.008639 -0.999954 -0.004247
v -0.038679 0.033626 0.002494
vn 0.014359 -0.997586 0.067940
v -0.037640 0.033672 0.002661
vn -0.009091 -0.991361 -0.130848
v -0.034117 0.038314 -0.000825
vn 0.022494 -0.998709 0.045548
v -0.033163 0.038195 -0.000525
vn 0.038103 -0.986871 0.156949
v -0.032074 0.038323 -0.000421
vn -0.376585 -0.926037 -0.025298
v 0.005150 0.033796 0.011215
vn -0.671876 0.713937 -0.197174
v 0.022621 0.036009 0.012754
vn 0.177347 -0.736675 0.652578
v 0.015682 0.037241 0.040859
vn 0.876792 -0.355243 0.324094
v 0.055531 0.052870 0.017170
vn 0.015333 -0.999029 0.041301
v -0.037314 0.033633 0.004572
vn 0.032569 -0.997020 0.069935
v -0.036275 0.033679 0.004741
vn -0.085634 -0.995422 0.042447
v -0.035232 0.033725 0.004914
vn -0.005310 -0.996595 -0.082281
v -0.031799 0.038204 0.001558
vn 0.000332 -0.998001 -0.063194
v -0.030798 0.038168 0.001796
vn -0.041691 -0.998859 0.023283
v -0.005595 0.038610 -0.005047
vn -0.628770 -0.757639 0.175020
v 0.005427 0.033677 0.013196
vn -0.352348 -0.933728 -0.063262
v 0.022253 0.036583 0.013980
vn -0.052064 -0.994265 0.093415
v -0.034908 0.033686 0.006824
vn 0.006689 -0.996547 0.082765
v -0.033822 0.033814 0.006925
vn 0.023891 -0.999628 0.013135
v -0.030478 0.038130 0.003707
vn 0.015865 -0.999855 -0.006208
v -0.029434 0.038176 0.003877
vn -0.823269 -0.423562 0.377919
v 0.005927 0.033969 0.014851
vn 0.588747 -0.791422 0.164402
v 0.021446 0.036336 0.015861
vn -0.068871 -0.997279 0.026277
v -0.033497 0.033775 0.008839
vn -0.066684 -0.996926 0.041130
v -0.032499 0.033739 0.009074
vn -0.009841 -0.997354 -0.072022
v -0.029158 0.038055 0.005854
vn 0.009538 -0.999390 -0.033596
v -0.028156 0.038020 0.006089
vn -0.655113 -0.686414 0.315694
v 0.006515 0.034423 0.016379
vn 0.476054 -0.874707 -0.090885
v 0.007468 0.034306 0.016676
vn 0.321718 -0.940113 0.112631
v 0.020678 0.036173 0.017673
vn -0.266922 -0.922342 0.279351
v -0.036307 0.034015 0.009546
vn 0.047287 -0.997789 0.046706
v -0.032129 0.033782 0.010916
vn 0.148132 -0.987829 0.047447
v -0.031002 0.033992 0.010953
vn 0.011979 -0.999695 -0.021612
v -0.027791 0.038063 0.007938
vn 0.521414 -0.842530 -0.135167
v 0.008104 0.034843 0.018135
vn -0.043532 -0.998557 0.031433
v 0.009103 0.034807 0.018372
vn 0.129771 -0.991424 0.015456
v 0.010095 0.034771 0.018605
vn 0.511015 -0.851002 0.121072
v 0.018960 0.036126 0.019186
vn 0.110805 -0.956385 0.270277
v -0.047104 0.035549 0.008080
vn 0.067939 -0.937152 0.342244
v -0.045974 0.035760 0.008121
vn 0.021823 -0.918205 0.395503
v -0.044932 0.035806 0.008291
vn -0.129340 -0.771317 0.623171
v -0.043846 0.035935 0.008396
vn -0.318719 -0.455954 0.830978
v -0.042893 0.035817 0.008697
vn -0.318282 -0.457043 0.830547
v -0.041940 0.035698 0.008997
vn -0.318721 -0.455793 0.831066
v -0.040987 0.035580 0.009297
vn -0.275092 -0.601631 0.749910
v -0.040029 0.035463 0.009601
vn -0.062067 -0.998035 0.008611
v -0.030589 0.034117 0.012731
vn 0.002245 -0.999144 -0.041302
v -0.027511 0.037942 0.009914
vn 0.086208 -0.996203 0.012119
v 0.010506 0.034898 0.020389
vn -0.130997 -0.991076 0.024665
v 0.011464 0.034779 0.020691
vn -0.217696 -0.976001 0.005587
v 0.012413 0.034661 0.020994
vn -0.140326 -0.988938 0.048068
v 0.013279 0.034380 0.021424
vn 0.025947 -0.993814 0.107981
v 0.014323 0.034426 0.021593
vn 0.026119 -0.993790 0.108163
v 0.015362 0.034471 0.021761
vn 0.065262 -0.988969 0.132974
v 0.016407 0.034518 0.021935
vn 0.517813 -0.839334 0.165494
v 0.017490 0.034646 0.022041
vn 0.490537 -0.869403 -0.059251
v -0.050169 0.034877 0.009864
vn 0.302383 -0.942755 0.140636
v -0.048597 0.035910 0.009255
vn -0.363983 -0.753689 0.547238
v -0.039222 0.036326 0.010790
vn -0.496756 -0.792955 0.352782
v -0.038357 0.036044 0.011220
vn -0.434938 -0.816449 0.379790
v -0.037534 0.035679 0.011718
vn -0.003681 -0.999243 0.038717
v -0.030307 0.033995 0.014706
vn 0.014788 -0.999627 -0.022946
v -0.027187 0.037903 0.011824
vn -0.112967 -0.962153 0.247994
v -0.053400 0.033495 0.003393
vn 0.216450 -0.976187 -0.014439
v -0.052567 0.033547 0.012365
vn -0.444217 -0.796296 0.410590
v -0.036902 0.036214 0.013167
vn -0.738567 -0.621180 0.262018
v -0.036081 0.035850 0.013662
vn -0.054562 -0.996944 0.055913
v -0.032659 0.034337 0.023309
vn 0.432529 -0.882659 0.183933
v -0.029803 0.034287 0.016353
vn -0.001065 -0.999163 -0.040884
v -0.026861 0.037864 0.013731
vn -0.773056 -0.614951 -0.155624
v -0.053211 0.033585 0.013987
vn -0.300272 -0.951130 -0.072031
v -0.035712 0.035892 0.015503
vn 0.683644 -0.680185 0.264536
v -0.028862 0.035397 0.017350
vn 0.295981 -0.952765 0.068071
v -0.026580 0.037743 0.015705
vn -0.775763 -0.610427 0.159907
v -0.062793 0.044081 0.003637
vn -0.959902 -0.200848 -0.195571
v -0.054019 0.033310 0.015848
vn -0.135193 -0.988728 -0.064349
v -0.035782 0.035110 0.017993
vn -0.886303 -0.433728 0.162319
v -0.053835 0.032987 0.017951
vn -0.323647 -0.946093 -0.012667
v -0.036190 0.035599 0.019269
vn -0.822428 -0.485674 0.296197
v -0.053361 0.033209 0.019630
vn -0.182849 -0.978916 -0.091050
v -0.036082 0.035145 0.021496
vn -0.199045 -0.978200 0.059205
v 0.010946 0.035028 0.027945
vn -0.820327 -0.508778 0.261169
v -0.052887 0.033429 0.021308
vn -0.228518 -0.970101 -0.081747
v -0.036665 0.035304 0.023032
vn 0.551263 -0.814043 0.182875
v -0.028717 0.037670 0.022425
vn -0.899838 -0.366788 0.236131
v -0.052453 0.033571 0.023045
vn 0.104851 -0.993214 0.050326
v -0.038280 0.035429 0.024381
vn -0.621059 -0.745032 0.243339
v -0.052058 0.033632 0.024841
vn -0.117757 -0.977297 0.176134
v -0.051028 0.033668 0.025030
vn 0.079078 -0.982442 0.168983
v -0.043838 0.033833 0.026390
vn -0.127841 -0.981881 0.139881
v -0.042804 0.033868 0.026576
vn 0.011816 -0.984883 0.172818
v -0.041896 0.033668 0.026940
vn 0.495008 -0.831575 0.251892
v -0.040695 0.034016 0.026887
vn -0.516990 -0.839719 0.166112
v 0.007691 0.039029 0.032395
vn -0.754937 -0.651956 0.070873
v 0.008423 0.038501 0.033018
vn -0.928413 -0.335757 -0.159112
v 0.008981 0.037639 0.033901
vn -0.218212 -0.975031 -0.041210
v 0.008529 0.034888 0.036265
vn -0.162863 -0.969559 0.182844
v -0.050551 0.033885 0.026703
vn -0.085447 -0.981230 0.172878
v -0.049558 0.033842 0.026950
vn -0.041474 -0.984550 0.170120
v -0.048566 0.033799 0.027196
vn -0.041085 -0.984876 0.168321
v -0.047533 0.033833 0.027381
vn -0.040474 -0.984603 0.170055
v -0.046546 0.033790 0.027625
vn 0.078757 -0.981658 0.173621
v -0.045511 0.033827 0.027816
vn -0.021264 -0.999341 0.029420
v 0.005250 0.039507 0.033271
vn -0.135738 -0.988689 0.063787
v 0.006242 0.039472 0.033507
vn -0.093800 -0.677987 0.729065
v 0.004819 0.034907 0.037291
vn -0.303603 -0.043085 0.951824
v 0.005774 0.034790 0.037588
vn -0.048863 -0.677930 0.733500
v 0.006724 0.034672 0.037888
vn -0.001005 -0.999771 0.021374
v 0.001494 0.039445 0.034359
vn 0.042382 -0.999009 0.013566
v 0.002535 0.039492 0.034531
vn 0.021558 -0.999599 0.018371
v 0.003576 0.039538 0.034703
vn -0.007781 -0.655298 0.755330
v 0.002068 0.034809 0.038609
vn -0.002060 -0.650591 0.759426
v 0.003107 0.034855 0.038781
vn -0.003902 -0.999804 0.019391
v -0.002255 0.039382 0.035446
vn 0.079995 -0.996730 0.011442
v -0.001215 0.039428 0.035617
vn 0.036809 -0.999155 0.018306
v -0.000130 0.039558 0.035725
vn 0.225060 -0.350366 0.909171
v -0.001504 0.035073 0.039435
vn -0.138119 -0.737816 0.660720
v -0.000643 0.034791 0.039868
vn 0.007248 -0.332497 0.943077
v 0.000357 0.034756 0.040101
vn 0.238734 -0.966443 0.094838
v -0.034835 0.034721 0.034578
vn 0.690534 -0.689169 0.219564
v -0.032525 0.037200 0.032926
vn 0.277697 -0.954788 0.106128
v -0.030985 0.038192 0.032390
vn -0.046343 -0.998752 0.018604
v -0.005962 0.039400 0.036465
vn 0.038884 -0.999091 0.017485
v -0.004961 0.039365 0.036702
vn 0.033851 -0.999232 0.019724
v -0.003880 0.039494 0.036810
vn 0.244423 -0.185186 0.951821
v -0.005252 0.035009 0.040518
vn -0.094479 -0.991620 -0.088106
v -0.004299 0.034891 0.040819
vn 0.215230 -0.232212 0.948554
v -0.003346 0.034774 0.041119
vn 0.227264 -0.864434 0.448448
v -0.056108 0.057106 0.012192
vn -0.262761 -0.964778 0.012665
v -0.034603 0.034465 0.036610
vn -0.150618 -0.982766 0.107169
v -0.033656 0.034344 0.036914
vn 0.063789 -0.997404 0.033402
v -0.030565 0.038325 0.034140
vn 0.092971 -0.994400 0.050255
v -0.029528 0.038362 0.034329
vn -0.007830 -0.999803 0.018253
v -0.009667 0.039418 0.037482
vn 0.041287 -0.998884 0.022939
v -0.008626 0.039465 0.037655
vn -0.006029 -0.999766 0.020761
v -0.007585 0.039512 0.037828
vn -0.213334 0.393232 -0.894347
v -0.008917 0.035108 0.041469
vn -0.067519 -0.995848 0.061053
v -0.008096 0.034744 0.041960
vn 0.243913 0.125508 0.961641
v -0.007009 0.034873 0.042072
vn -0.287425 -0.957565 0.021367
v -0.056691 0.057266 0.013731
vn -0.150229 -0.982897 0.106514
v -0.033222 0.034481 0.038647
vn -0.150901 -0.982805 0.106409
v -0.032272 0.034360 0.038952
vn 0.058571 -0.997744 0.032802
v -0.029058 0.038582 0.036007
vn 0.100591 -0.993511 0.053071
v -0.028064 0.038541 0.036256
vn 0.134800 -0.988056 0.074666
v -0.026901 0.038824 0.036255
vn -0.005810 -0.999855 0.016001
v -0.013415 0.039353 0.038562
vn 0.077612 -0.996475 0.031842
v -0.012331 0.039482 0.038671
vn -0.008103 -0.999769 0.019889
v -0.011290 0.039529 0.038844
vn 0.217628 -0.344500 0.913213
v -0.012651 0.035056 0.042526
vn -0.091920 -0.995756 -0.004514
v -0.011781 0.034777 0.042952
vn 0.228039 -0.051935 0.972266
v -0.010748 0.034814 0.043136
vn -0.274879 -0.957268 0.089890
v -0.057230 0.057508 0.015206
vn -0.081124 -0.977007 0.197171
v -0.031836 0.034496 0.040687
vn -0.051963 -0.971664 0.230585
v -0.030804 0.034533 0.040876
vn -0.095701 -0.981057 0.168427
v -0.029814 0.034490 0.041119
vn 0.067018 -0.997000 0.038712
v -0.026519 0.038877 0.038062
vn 0.070589 -0.996653 0.041244
v -0.025446 0.038993 0.038191
vn 0.076966 -0.996097 0.043214
v -0.024400 0.039040 0.038365
vn 0.039025 -0.998824 0.028755
v -0.023320 0.039170 0.038473
vn 0.002424 -0.999914 0.012908
v -0.022323 0.039134 0.038711
vn 0.040549 -0.998800 0.027469
v -0.021282 0.039181 0.038884
vn 0.040549 -0.998800 0.027470
v -0.020242 0.039228 0.039057
vn 0.040531 -0.998801 0.027464
v -0.019201 0.039275 0.039230
vn 0.040880 -0.998784 0.027562
v -0.018160 0.039322 0.039403
vn 0.077624 -0.996295 0.037013
v -0.017114 0.039370 0.039577
vn 0.077144 -0.996303 0.037811
v -0.016034 0.039499 0.039685
vn -0.042975 -0.999006 0.011835
v -0.014994 0.039546 0.039858
vn 0.250636 -0.063751 0.965980
v -0.016471 0.034813 0.043685
vn -0.046567 -0.976008 0.212697
v -0.015479 0.034771 0.043936
vn 0.226062 -0.038198 0.973364
v -0.014447 0.034808 0.044122
vn -0.122451 -0.958579 0.257163
v -0.046713 0.037962 0.051739
vn -0.265511 -0.939745 0.215369
v -0.057726 0.057832 0.016615
vn -0.095577 -0.980547 0.171445
v -0.029335 0.034704 0.042795
vn -0.055294 -0.966713 0.249818
v -0.028344 0.034663 0.043040
vn -0.054791 -0.967709 0.246044
v -0.027312 0.034700 0.043231
vn 0.009790 -0.919968 0.391871
v -0.026323 0.034658 0.043474
vn 0.073708 -0.852873 0.516890
v -0.025208 0.034854 0.043545
vn -0.044701 -0.970955 0.235049
v -0.024133 0.034970 0.043675
vn -0.104592 -0.991251 0.080509
v -0.023184 0.034849 0.043981
vn -0.079995 -0.985051 0.152564
v -0.022189 0.034807 0.044229
vn -0.052634 -0.968926 0.241684
v -0.021198 0.034765 0.044480
vn -0.024987 -0.944367 0.327942
v -0.020165 0.034803 0.044666
vn -0.051351 -0.970772 0.234445
v -0.019137 0.034840 0.044853
vn 0.220772 -0.050277 0.974029
v -0.018145 0.034798 0.045101
vn -0.258020 -0.922076 0.288448
v -0.057180 0.058203 0.018197
vn -0.262747 -0.915909 0.303439
v -0.057586 0.058692 0.019478
vn -0.199719 -0.971796 0.125402
v -0.057950 0.059247 0.020687
vn -0.466959 -0.845969 0.257461
v -0.068666 0.060925 0.016624
vn 0.591074 0.799995 0.103150
v -0.061804 0.144959 0.006282
# 243 vertices, 0 vertices normals

f 36//36 29//29 28//28
f 16//16 15//15 14//14
f 174//174 225//225 122//122
f 15//15 129//129 14//14
f 14//14 18//18 17//17
f 75//75 74//74 69//69
f 216//216 215//215 69//69
f 14//14 1//1 4//4
f 1//1 14//14 225//225
f 129//129 15//15 11//11
f 1//1 22//22 4//4
f 225//225 62//62 1//1
f 63//63 22//22 1//1
f 4//4 242//242 7//7
f 63//63 1//1 62//62
f 4//4 243//243 13//13
f 69//69 186//186 176//176
f 222//222 225//225 238//238
f 128//128 139//139 127//127
f 12//12 19//19 3//3
f 69//69 128//128 124//124
f 139//139 122//122 127//127
f 123//123 122//122 116//116
f 176//176 175//175 139//139
f 36//36 28//28 27//27
f 141//141 225//225 147//147
f 8//8 14//14 9//9
f 205//205 225//225 204//204
f 232//232 225//225 231//231
f 233//233 225//225 232//232
f 243//243 4//4 21//21
f 14//14 5//5 18//18
f 129//129 11//11 183//183
f 10//10 14//14 6//6
f 122//122 131//131 126//126
f 69//69 102//102 88//88
f 139//139 174//174 122//122
f 7//7 2//2 6//6
f 14//14 10//10 12//12
f 116//116 122//122 101//101
f 14//14 12//12 3//3
f 14//14 7//7 6//6
f 5//5 14//14 8//8
f 138//138 122//122 141//141
f 81//81 80//80 69//69
f 69//69 117//117 102//102
f 14//14 17//17 16//16
f 79//79 122//122 78//78
f 87//87 122//122 86//86
f 83//83 136//136 82//82
f 4//4 22//22 21//21
f 14//14 3//3 9//9
f 215//215 214//214 69//69
f 213//213 212//212 69//69
f 198//198 197//197 69//69
f 13//13 243//243 21//21
f 135//135 122//122 138//138
f 127//127 122//122 123//123
f 69//69 124//124 117//117
f 69//69 139//139 128//128
f 122//122 225//225 141//141
f 69//69 80//80 75//75
f 86//86 122//122 79//79
f 227//227 225//225 209//209
f 101//101 122//122 87//87
f 175//175 174//174 139//139
f 184//184 225//225 174//174
f 69//69 158//158 165//165
f 166//166 62//62 173//173
f 69//69 210//210 199//199
f 20//20 21//21 22//22
f 190//190 189//189 69//69
f 77//77 62//62 84//84
f 62//62 136//136 109//109
f 61//61 62//62 71//71
f 196//196 225//225 195//195
f 218//218 217//217 69//69
f 36//36 46//46 45//45
f 109//109 136//136 108//108
f 36//36 48//48 47//47
f 71//71 62//62 77//77
f 191//191 192//192 225//225
f 171//171 225//225 182//182
f 228//228 225//225 227//227
f 236//236 225//225 235//235
f 136//136 62//62 151//151
f 203//203 225//225 224//224
f 69//69 188//188 202//202
f 37//37 46//46 36//36
f 70//70 69//69 60//60
f 69//69 168//168 179//179
f 180//180 225//225 193//193
f 108//108 136//136 107//107
f 36//36 47//47 40//40
f 63//63 36//36 22//22
f 69//69 163//163 170//170
f 91//91 136//136 90//90
f 69//69 197//197 187//187
f 189//189 188//188 69//69
f 204//204 225//225 203//203
f 110//110 62//62 109//109
f 151//151 62//62 162//162
f 136//136 151//151 150//150
f 179//179 178//178 69//69
f 107//107 136//136 106//106
f 36//36 40//40 39//39
f 178//178 177//177 69//69
f 171//171 172//172 225//225
f 69//69 177//177 190//190
f 191//191 225//225 205//205
f 69//69 36//36 45//45
f 36//36 63//63 62//62
f 136//136 150//150 149//149
f 25//25 37//37 36//36
f 76//76 69//69 70//70
f 162//162 62//62 161//161
f 106//106 136//136 105//105
f 169//169 168//168 69//69
f 39//39 38//38 36//36
f 181//181 225//225 180//180
f 122//122 85//85 78//78
f 220//220 219//219 69//69
f 173//173 62//62 172//172
f 36//36 27//27 26//26
f 36//36 62//62 48//48
f 165//165 164//164 69//69
f 62//62 225//225 172//172
f 69//69 176//176 139//139
f 237//237 225//225 236//236
f 199//199 198//198 69//69
f 89//89 136//136 83//83
f 230//230 225//225 229//229
f 224//224 225//225 223//223
f 214//214 213//213 69//69
f 69//69 88//88 81//81
f 202//202 201//201 69//69
f 45//45 53//53 69//69
f 219//219 218//218 69//69
f 131//131 122//122 133//133
f 208//208 225//225 207//207
f 217//217 216//216 69//69
f 231//231 225//225 230//230
f 122//122 135//135 133//133
f 234//234 225//225 233//233
f 69//69 200//200 221//221
f 161//161 62//62 160//160
f 136//136 149//149 148//148
f 105//105 136//136 104//104
f 193//193 225//225 192//192
f 211//211 210//210 69//69
f 36//36 38//38 32//32
f 129//129 242//242 21//21
f 21//21 242//242 13//13
f 26//26 25//25 36//36
f 82//82 69//69 76//76
f 82//82 136//136 69//69
f 229//229 225//225 228//228
f 235//235 225//225 234//234
f 242//242 241//241 7//7
f 212//212 211//211 69//69
f 36//36 30//30 29//29
f 242//242 4//4 13//13
f 20//20 36//36 69//69
f 170//170 169//169 69//69
f 182//182 225//225 181//181
f 207//207 225//225 196//196
f 160//160 62//62 167//167
f 195//195 225//225 185//185
f 69//69 148//148 159//159
f 209//209 225//225 208//208
f 104//104 136//136 103//103
f 136//136 148//148 69//69
f 36//36 32//32 31//31
f 164//164 163//163 69//69
f 183//183 242//242 129//129
f 183//183 194//194 242//242
f 194//194 206//206 242//242
f 206//206 226//226 242//242
f 239//239 242//242 226//226
f 239//239 240//240 242//242
f 240//240 241//241 242//242
f 20//20 129//129 21//21
f 20//20 118//118 129//129
f 84//84 62//62 92//92
f 92//92 62//62 110//110
f 14//14 129//129 118//118
f 62//62 54//54 48//48
f 125//125 14//14 118//118
f 119//119 125//125 118//118
f 125//125 130//130 14//14
f 111//111 119//119 118//118
f 132//132 14//14 130//130
f 187//187 186//186 69//69
f 185//185 225//225 184//184
f 112//112 111//111 118//118
f 134//134 14//14 132//132
f 20//20 23//23 118//118
f 93//93 112//112 118//118
f 137//137 14//14 134//134
f 14//14 137//137 225//225
f 24//24 23//23 20//20
f 33//33 118//118 23//23
f 118//118 94//94 93//93
f 140//140 225//225 137//137
f 7//7 14//14 4//4
f 60//60 69//69 53//53
f 20//20 34//34 24//24
f 41//41 118//118 33//33
f 118//118 95//95 94//94
f 142//142 225//225 140//140
f 35//35 34//34 20//20
f 69//69 35//35 20//20
f 42//42 118//118 41//41
f 118//118 96//96 95//95
f 143//143 225//225 142//142
f 167//167 62//62 166//166
f 159//159 158//158 69//69
f 69//69 43//43 35//35
f 49//49 118//118 42//42
f 118//118 97//97 96//96
f 152//152 225//225 143//143
f 62//62 61//61 54//54
f 44//44 43//43 69//69
f 50//50 118//118 49//49
f 118//118 98//98 97//97
f 153//153 225//225 152//152
f 221//221 220//220 69//69
f 69//69 51//51 44//44
f 55//55 118//118 50//50
f 118//118 99//99 98//98
f 154//154 225//225 153//153
f 52//52 51//51 69//69
f 56//56 118//118 55//55
f 118//118 100//100 99//99
f 155//155 225//225 154//154
f 22//22 36//36 20//20
f 69//69 57//57 52//52
f 64//64 118//118 56//56
f 118//118 85//85 100//100
f 85//85 113//113 100//100
f 156//156 225//225 155//155
f 238//238 225//225 237//237
f 103//103 136//136 91//91
f 31//31 30//30 36//36
f 58//58 57//57 69//69
f 85//85 118//118 64//64
f 65//65 85//85 64//64
f 114//114 113//113 85//85
f 157//157 225//225 156//156
f 59//59 58//58 69//69
f 66//66 85//85 65//65
f 115//115 114//114 85//85
f 144//144 225//225 157//157
f 90//90 136//136 89//89
f 201//201 200//200 69//69
f 223//223 225//225 222//222
f 69//69 67//67 59//59
f 72//72 85//85 66//66
f 85//85 120//120 115//115
f 145//145 225//225 144//144
f 68//68 67//67 69//69
f 73//73 85//85 72//72
f 85//85 121//121 120//120
f 146//146 225//225 145//145
f 69//69 74//74 68//68
f 78//78 85//85 73//73
f 85//85 122//122 121//121
f 122//122 126//126 121//121
f 147//147 225//225 146//146
# 269 faces, 0 coords texture

# End of File
